<svg width="174" height="174" viewBox="0 0 174 174" fill="none" xmlns="http://www.w3.org/2000/svg">
<path fill-rule="evenodd" clip-rule="evenodd" d="M83.975 1.24028C81.6229 2.05513 79.6727 3.66939 74.7098 8.90802C72.1816 11.5766 69.6031 14.0752 68.9798 14.4606C67.1074 15.6177 64.6754 15.3755 58.7304 13.4405C53.4992 11.7377 50.5749 11.0637 48.4176 11.0637C46.3362 11.0637 43.9056 11.992 42.3113 13.3952C40.0957 15.3456 38.9528 18.0518 37.39 25.0486C35.9973 31.2849 35.1825 33.6654 34.1218 34.5966C33.0068 35.5759 30.9358 36.2448 24.8945 37.5779C17.9371 39.113 15.1496 40.2912 13.1803 42.5284C10.1006 46.0276 10.1355 49.5252 13.349 59.3583C14.9936 64.391 15.309 67.2857 14.4029 69.0375C14.1436 69.5391 11.5701 72.1949 8.68367 74.9394C2.98655 80.3568 1.8645 81.744 0.963502 84.4834C0.180583 86.8638 0.412374 88.9914 1.75145 91.7116C2.64641 93.5299 3.70841 94.7271 8.37406 99.1778C11.4303 102.093 14.1433 104.889 14.4026 105.391C15.309 107.143 14.994 110.037 13.349 115.07C10.8023 122.863 10.4162 125.556 11.3799 128.801C12.0928 131.202 14.6049 133.708 17.3924 134.799C18.498 135.231 21.9701 136.165 25.1079 136.872C31.0995 138.224 33.461 139.044 34.3801 140.09C35.3495 141.194 36.0157 143.253 37.3873 149.38C38.9535 156.377 40.0977 159.085 42.3113 161.034C45.8166 164.119 49.3022 164.08 59.1997 160.845C64.1709 159.22 66.9846 158.864 68.5635 159.659C69.0144 159.886 71.9495 162.695 75.0859 165.902C79.8109 170.732 81.1332 171.891 82.801 172.664C85.7163 174.015 88.427 173.971 91.3618 172.527C93.5328 171.458 94.786 170.301 101.778 162.914C103.148 161.466 104.717 160.049 105.265 159.764C107.005 158.859 109.622 159.157 114.788 160.845C124.686 164.08 128.171 164.119 131.677 161.034C133.892 159.083 135.035 156.377 136.598 149.38C137.989 143.15 138.804 140.77 139.866 139.825C140.729 139.059 143.439 138.031 145.864 137.55C154.995 135.742 158.639 134.364 160.808 131.9C163.892 128.396 163.854 124.908 160.622 115.019C158.922 109.817 158.62 107.204 159.522 105.497C159.815 104.944 162.554 102.105 165.609 99.1898C170.343 94.6728 171.328 93.558 172.267 91.6489C173.809 88.5167 173.816 85.9259 172.29 82.8265C171.215 80.6433 169.934 79.2528 162.871 72.6039C161.524 71.3365 160.112 69.7967 159.732 69.1821C158.61 67.3656 158.839 64.867 160.631 59.3822C163.862 49.4953 163.893 46.0333 160.78 42.4972C158.895 40.3549 156.06 39.1043 150.285 37.8671C144.306 36.5856 141.212 35.648 140.114 34.7845C138.984 33.8955 138.07 31.7089 137.279 28.0047C135.216 18.3386 134.158 15.5798 131.677 13.3952C128.175 10.3129 124.682 10.3495 114.824 13.5717C109.34 15.3644 106.841 15.5935 105.025 14.4707C104.41 14.091 102.869 12.6787 101.6 11.3318C93.8182 3.07494 92.8132 2.20843 89.8694 1.21948C87.8511 0.541506 85.9722 0.548216 83.975 1.24028Z" fill="white"/>
<mask id="mask0_603_1187" style="mask-type:alpha" maskUnits="userSpaceOnUse" x="1" y="0" width="173" height="174">
<path fill-rule="evenodd" clip-rule="evenodd" d="M84.5011 1.08012C82.1478 1.89497 80.1965 3.50923 75.2312 8.74786C72.7017 11.4165 70.1219 13.915 69.4984 14.3005C67.625 15.4575 65.1918 15.2153 59.2439 13.2803C54.01 11.5775 51.0842 10.9036 48.9259 10.9036C46.8435 10.9036 44.4117 11.8318 42.8165 13.235C40.5998 15.1854 39.4564 17.8916 37.8928 24.8885C36.4994 31.1248 35.6842 33.5052 34.623 34.4365C33.5074 35.4157 31.4354 36.0846 25.3911 37.4178C18.4302 38.9528 15.6413 40.131 13.671 42.3682C10.5897 45.8675 10.6246 49.365 13.8398 59.1982C15.4852 64.2308 15.8007 67.1256 14.8942 68.8774C14.6348 69.3789 12.06 72.0348 9.17212 74.7792C3.47215 80.1967 2.34954 81.5838 1.4481 84.3232C0.664791 86.7037 0.896697 88.8312 2.23645 91.5515C3.13185 93.3697 4.19438 94.567 8.86236 99.0176C11.9201 101.933 14.6345 104.729 14.8939 105.23C15.8007 106.983 15.4856 109.877 13.8398 114.91C11.2918 122.703 10.9055 125.396 11.8697 128.641C12.5829 131.041 15.0963 133.547 17.8852 134.638C18.9913 135.071 22.4652 136.004 25.6045 136.712C31.5991 138.064 33.9618 138.884 34.8814 139.93C35.8513 141.034 36.5178 143.092 37.8901 149.22C39.4571 156.217 40.6018 158.925 42.8165 160.873C46.3236 163.959 49.8109 163.92 59.7134 160.685C64.6871 159.06 67.5022 158.704 69.0819 159.499C69.5329 159.726 72.4695 162.535 75.6074 165.741C80.3348 170.572 81.6578 171.731 83.3264 172.504C86.2432 173.855 88.9553 173.811 91.8915 172.366C94.0635 171.298 95.3174 170.141 102.313 162.753C103.684 161.306 105.254 159.889 105.801 159.604C107.543 158.699 110.161 158.997 115.33 160.685C125.232 163.92 128.719 163.959 132.227 160.873C134.443 158.923 135.587 156.217 137.15 149.22C138.542 142.989 139.357 140.61 140.42 139.665C141.283 138.898 143.994 137.871 146.421 137.39C155.556 135.582 159.203 134.204 161.372 131.74C164.458 128.236 164.42 124.748 161.187 114.859C159.486 109.657 159.184 107.044 160.086 105.337C160.378 104.784 163.119 101.945 166.176 99.0297C170.912 94.5126 171.897 93.3979 172.837 91.4888C174.38 88.3565 174.387 85.7657 172.86 82.6664C171.785 80.4831 170.503 79.0926 163.436 72.4437C162.089 71.1763 160.676 69.6365 160.296 69.022C159.173 67.2054 159.402 64.7069 161.196 59.222C164.428 49.3352 164.459 45.8732 161.345 42.337C159.458 40.1947 156.622 38.9441 150.844 37.7069C144.862 36.4254 141.766 35.4878 140.668 34.6243C139.537 33.7354 138.623 31.5488 137.832 27.8446C135.768 18.1785 134.709 15.4196 132.227 13.235C128.723 10.1528 125.229 10.1894 115.366 13.4115C109.878 15.2042 107.379 15.4334 105.561 14.3105C104.947 13.9308 103.405 12.5185 102.135 11.1716C94.3492 2.91479 93.3437 2.04828 90.3984 1.05933C88.379 0.38135 86.4993 0.38806 84.5011 1.08012Z" fill="white"/>
</mask>
<g mask="url(#mask0_603_1187)">
<g filter="url(#filter0_b_603_1187)">
<path d="M70.4262 22.4597L70.4261 22.4598C69.4594 23.0571 68.3651 23.2727 66.8473 23.1216C65.3501 22.9726 63.4045 22.4631 60.7024 21.5837L60.8571 21.1083L60.7024 21.5837C55.9486 20.0364 53.3631 19.4504 51.4935 19.4504C49.728 19.4504 47.6378 20.247 46.2794 21.4425C44.4032 23.094 43.3894 25.3961 41.9687 31.7561C41.3361 34.5885 40.8301 36.5676 40.357 37.9495C39.8886 39.318 39.4287 40.1774 38.8433 40.6914C38.2612 41.2025 37.4618 41.6022 36.1553 42.0243C34.848 42.4466 32.9857 42.9054 30.243 43.5106L30.1352 43.0223L30.243 43.5106C23.92 44.9056 21.5433 45.9514 19.8744 47.8472C18.5501 49.3518 17.9111 50.8228 17.9329 52.9952C17.9551 55.217 18.6684 58.1768 20.1275 62.6412C20.8783 64.9382 21.3354 66.7756 21.4963 68.2532C21.657 69.7289 21.5281 70.8959 21.0534 71.8138C20.9988 71.9192 20.908 72.0408 20.8164 72.1553C20.7172 72.2793 20.59 72.4278 20.4404 72.5957C20.1408 72.932 19.7394 73.3595 19.2663 73.8476C18.3196 74.8245 17.0753 76.0551 15.7608 77.3047C10.5769 82.2337 9.65478 83.4129 8.88162 85.7635C8.21994 87.7751 8.39973 89.5703 9.57068 91.9488L9.12209 92.1697L9.57069 91.9489C10.3369 93.5054 11.2296 94.5318 15.4803 98.5863C16.8715 99.9132 18.1858 101.214 19.1832 102.242C19.6815 102.755 20.1034 103.203 20.4171 103.554C20.5737 103.729 20.7063 103.883 20.8091 104.01C20.9037 104.127 20.9978 104.252 21.0531 104.359M70.4262 22.4597L19.6523 113.377C17.34 120.452 16.9894 122.896 17.8644 125.842C18.5117 128.022 20.7926 130.297 23.3235 131.288M70.4262 22.4597C70.6113 22.3453 70.8956 22.1077 71.2255 21.8124C71.5672 21.5067 71.9898 21.1097 72.4639 20.6503C73.4126 19.731 74.5768 18.5531 75.7289 17.3372L75.3659 16.9933L75.7289 17.3372C80.2491 12.5662 81.9402 11.1977 83.9421 10.5043L83.7946 10.0786L83.9421 10.5043C85.6502 9.91245 87.2425 9.90635 88.9711 10.4869C90.2537 10.9178 91.0914 11.3089 92.4821 12.5077C93.9034 13.7328 95.8777 15.7812 99.4175 19.5367C100.002 20.1572 100.649 20.792 101.221 21.3166C101.783 21.831 102.304 22.2685 102.628 22.4689C103.57 23.0511 104.666 23.2609 106.136 23.126C107.591 22.9926 109.448 22.5185 111.944 21.7026C116.42 20.2397 119.385 19.5241 121.609 19.5008C123.783 19.4781 125.254 20.1171 126.76 21.4424C128.867 23.298 129.807 25.6252 131.688 34.4353L132.177 34.331L131.688 34.4353C132.05 36.1319 132.444 37.5023 132.887 38.5599C133.326 39.6096 133.831 40.3988 134.441 40.8792L134.751 40.4862L134.441 40.8792C135.021 41.3354 136.056 41.7658 137.561 42.2217C139.087 42.684 141.162 43.1911 143.881 43.7738L143.986 43.2849L143.881 43.7738C149.112 44.8943 151.542 46.0042 153.14 47.8188C154.48 49.3418 155.126 50.8137 155.107 52.9868C155.088 55.2102 154.372 58.1735 152.905 62.6628C152.089 65.159 151.615 67.0154 151.481 68.47C151.346 69.9402 151.556 71.0364 152.138 71.9782C152.339 72.3027 152.776 72.8236 153.291 73.3844C153.815 73.9563 154.45 74.6022 155.071 75.1861C161.509 81.2465 162.59 82.4414 163.517 84.3238L163.966 84.103L163.517 84.3239C164.185 85.6798 164.503 86.895 164.5 88.0954C164.497 89.2961 164.172 90.5197 163.496 91.8919C162.689 93.5317 161.866 94.4841 157.554 98.5973C156.163 99.9247 154.843 101.236 153.836 102.279C153.332 102.801 152.904 103.258 152.584 103.619C152.424 103.799 152.288 103.959 152.182 104.092C152.082 104.216 151.988 104.344 151.931 104.452L152.373 104.685M70.4262 22.4597L70.0101 153.412M21.0531 104.359L20.6164 104.585L21.053 104.359C21.0531 104.359 21.0531 104.359 21.0531 104.359ZM21.0531 104.359C21.528 105.277 21.657 106.444 21.4964 107.92C21.3355 109.397 20.8784 111.235 20.1275 113.532C17.8131 120.614 17.5179 122.92 18.3438 125.7L17.8658 125.842L18.3438 125.7C18.9383 127.703 21.087 129.876 23.5058 130.822L23.3235 131.288M23.3235 131.288L23.5058 130.822C24.4694 131.199 27.5866 132.039 30.439 132.683C33.161 133.297 35.0806 133.795 36.4295 134.263C37.7649 134.726 38.6159 135.184 39.1235 135.762L38.7478 136.092M23.3235 131.288C24.3274 131.681 27.48 132.528 30.3289 133.171C35.7692 134.398 37.9133 135.142 38.7478 136.092M38.7478 136.092L39.1235 135.762C39.6305 136.34 40.0273 137.134 40.4518 138.445C40.8767 139.757 41.3436 141.636 41.9662 144.417C43.39 150.777 44.405 153.081 46.2795 154.731C47.787 156.058 49.2567 156.697 51.4341 156.673C53.6615 156.648 56.6335 155.929 61.1279 154.46C63.3957 153.719 65.1978 153.258 66.6265 153.077C68.0478 152.897 69.1629 152.985 70.0101 153.412M38.7478 136.092C39.6281 137.095 40.2329 138.963 41.4783 144.526C42.9003 150.879 43.9392 153.337 45.9491 155.106C49.1318 157.908 52.2966 157.872 61.2832 154.935C65.797 153.46 68.3517 153.137 69.7853 153.858C70.1946 154.064 72.8596 156.615 75.7073 159.526C79.9975 163.911 81.1981 164.964 82.7124 165.665C85.3594 166.892 87.8207 166.852 90.4853 165.541C92.4565 164.57 93.5944 163.52 99.9431 156.813C101.187 155.499 102.612 154.212 103.109 153.954C104.689 153.132 107.065 153.402 111.756 154.935C120.742 157.872 123.907 157.908 127.09 155.106C129.102 153.335 130.139 150.879 131.558 144.526C132.822 138.87 133.561 136.709 134.526 135.851C135.309 135.155 137.769 134.222 139.971 133.786C148.262 132.144 151.571 130.893 153.54 128.657C156.341 125.475 156.306 122.309 153.372 113.33C151.828 108.608 151.554 106.235 152.373 104.685M70.0101 153.412C70.1162 153.465 70.2419 153.562 70.3549 153.653C70.4813 153.755 70.6367 153.889 70.8155 154.048C71.1736 154.367 71.6389 154.801 72.1776 155.316C73.2557 156.348 74.6379 157.717 76.0648 159.176C80.3761 163.584 81.5091 164.557 82.9226 165.212C85.4297 166.373 87.7325 166.338 90.2645 165.092C92.1361 164.171 93.2052 163.204 99.58 156.469C100.211 155.803 100.887 155.144 101.471 154.616C101.763 154.353 102.034 154.119 102.268 153.934C102.493 153.754 102.708 153.599 102.878 153.51C103.788 153.037 104.888 152.902 106.322 153.065C107.752 153.227 109.557 153.691 111.911 154.46C116.406 155.929 119.378 156.648 121.605 156.673C123.782 156.697 125.252 156.058 126.76 154.731C128.636 153.079 129.65 150.777 131.07 144.417C131.702 141.587 132.208 139.61 132.681 138.227C133.15 136.858 133.609 135.997 134.194 135.478L134.194 135.478C134.66 135.063 135.548 134.63 136.539 134.254C137.552 133.87 138.744 133.519 139.874 133.296C148.194 131.648 151.325 130.416 153.165 128.326C154.491 126.819 155.13 125.349 155.106 123.173C155.082 120.946 154.364 117.976 152.896 113.486C152.122 111.116 151.655 109.304 151.49 107.875C151.324 106.443 151.457 105.349 151.931 104.452L152.373 104.685M70.0101 153.412L152.373 104.685M70.0101 153.412C70.0101 153.412 70.01 153.412 70.01 153.412L69.7889 153.851L70.0101 153.412Z" stroke="#A4B0BB" stroke-opacity="0.35"/>
</g>
</g>
<path d="M55.1009 101.556V88.02L52.2261 89.7491V87.9987L55.1009 86.2802H56.6815V101.556H55.1009ZM69.9808 85.9726C70.9426 85.9726 71.8124 86.206 72.5903 86.6727C73.3753 87.1324 73.9977 87.7618 74.4574 88.561C74.9171 89.353 75.1469 90.2441 75.1469 91.2342V96.5383C75.1469 97.5567 74.9171 98.4689 74.4574 99.2752C73.9977 100.081 73.3683 100.718 72.5691 101.185C71.7771 101.644 70.8754 101.874 69.8641 101.874C68.9942 101.874 68.188 101.683 67.4454 101.301C66.7099 100.912 66.1017 100.378 65.6208 99.6995L66.8089 98.7129C67.1342 99.2151 67.5656 99.6182 68.1031 99.9223C68.6477 100.226 69.2347 100.378 69.8641 100.378C70.5854 100.378 71.2219 100.209 71.7735 99.8692C72.3322 99.5227 72.7707 99.0701 73.0889 98.5114C73.4142 97.9456 73.5769 97.3339 73.5769 96.6762V93.3452L73.9588 93.7908C73.5203 94.4909 72.9369 95.0567 72.2085 95.4881C71.4871 95.9195 70.695 96.1352 69.8322 96.1352C68.8917 96.1352 68.0395 95.9089 67.2757 95.4562C66.519 95.0036 65.9178 94.3954 65.4723 93.6317C65.0338 92.8679 64.8146 92.0157 64.8146 91.0751C64.8146 90.1345 65.048 89.2788 65.5147 88.5079C65.9815 87.73 66.6074 87.1147 67.3924 86.6621C68.1774 86.2024 69.0402 85.9726 69.9808 85.9726ZM69.9808 87.479C69.316 87.479 68.7113 87.6416 68.1668 87.9669C67.6222 88.2852 67.1873 88.7166 66.862 89.2611C66.5437 89.8057 66.3846 90.4103 66.3846 91.0751C66.3846 91.7399 66.5437 92.3445 66.862 92.8891C67.1802 93.4336 67.6116 93.8686 68.1562 94.1939C68.7007 94.5121 69.3054 94.6712 69.9701 94.6712C70.6349 94.6712 71.2396 94.5121 71.7841 94.1939C72.3358 93.8686 72.7707 93.4336 73.0889 92.8891C73.4142 92.3445 73.5769 91.7399 73.5769 91.0751C73.5769 90.4174 73.4142 89.8163 73.0889 89.2717C72.7707 88.7272 72.3393 88.2922 71.7947 87.9669C71.2502 87.6416 70.6455 87.479 69.9808 87.479ZM83.1373 85.9726C84.0991 85.9726 84.969 86.206 85.7469 86.6727C86.5319 87.1324 87.1542 87.7618 87.6139 88.561C88.0736 89.353 88.3034 90.2441 88.3034 91.2342V96.5383C88.3034 97.5567 88.0736 98.4689 87.6139 99.2752C87.1542 100.081 86.5248 100.718 85.7257 101.185C84.9336 101.644 84.0319 101.874 83.0206 101.874C82.1507 101.874 81.3445 101.683 80.602 101.301C79.8665 100.912 79.2583 100.378 78.7774 99.6995L79.9655 98.7129C80.2908 99.2151 80.7222 99.6182 81.2597 99.9223C81.8042 100.226 82.3912 100.378 83.0206 100.378C83.742 100.378 84.3784 100.209 84.9301 99.8692C85.4888 99.5227 85.9272 99.0701 86.2455 98.5114C86.5708 97.9456 86.7334 97.3339 86.7334 96.6762V93.3452L87.1153 93.7908C86.6769 94.4909 86.0934 95.0567 85.365 95.4881C84.6436 95.9195 83.8516 96.1352 82.9888 96.1352C82.0482 96.1352 81.196 95.9089 80.4322 95.4562C79.6755 95.0036 79.0744 94.3954 78.6288 93.6317C78.1904 92.8679 77.9711 92.0157 77.9711 91.0751C77.9711 90.1345 78.2045 89.2788 78.6713 88.5079C79.138 87.73 79.7639 87.1147 80.5489 86.6621C81.3339 86.2024 82.1967 85.9726 83.1373 85.9726ZM83.1373 87.479C82.4725 87.479 81.8679 87.6416 81.3233 87.9669C80.7788 88.2852 80.3438 88.7166 80.0185 89.2611C79.7003 89.8057 79.5411 90.4103 79.5411 91.0751C79.5411 91.7399 79.7003 92.3445 80.0185 92.8891C80.3368 93.4336 80.7681 93.8686 81.3127 94.1939C81.8572 94.5121 82.4619 94.6712 83.1267 94.6712C83.7915 94.6712 84.3961 94.5121 84.9407 94.1939C85.4923 93.8686 85.9272 93.4336 86.2455 92.8891C86.5708 92.3445 86.7334 91.7399 86.7334 91.0751C86.7334 90.4174 86.5708 89.8163 86.2455 89.2717C85.9272 88.7272 85.4958 88.2922 84.9513 87.9669C84.4067 87.6416 83.8021 87.479 83.1373 87.479ZM96.2514 101.874C95.3108 101.874 94.4622 101.655 93.7055 101.216C92.9558 100.778 92.3618 100.184 91.9233 99.4343C91.4848 98.6776 91.2656 97.8289 91.2656 96.8883V90.9478C91.2656 90.0072 91.4848 89.1621 91.9233 88.4125C92.3618 87.6558 92.9558 87.0582 93.7055 86.6197C94.4622 86.1812 95.3108 85.962 96.2514 85.962C97.192 85.962 98.0371 86.1812 98.7867 86.6197C99.5434 87.0582 100.141 87.6558 100.58 88.4125C101.018 89.1621 101.237 90.0072 101.237 90.9478V96.8883C101.237 97.8289 101.018 98.6776 100.58 99.4343C100.141 100.184 99.5434 100.778 98.7867 101.216C98.0371 101.655 97.192 101.874 96.2514 101.874ZM96.2514 100.368C96.8808 100.368 97.4537 100.216 97.9699 99.9117C98.4862 99.6005 98.8964 99.1868 99.2005 98.6705C99.5046 98.1542 99.6566 97.5849 99.6566 96.9626V90.8735C99.6566 90.2441 99.5046 89.6713 99.2005 89.155C98.8964 88.6388 98.4862 88.2286 97.9699 87.9245C97.4537 87.6133 96.8808 87.4577 96.2514 87.4577C95.622 87.4577 95.0491 87.6133 94.5329 87.9245C94.0166 88.2286 93.6064 88.6388 93.3023 89.155C92.9982 89.6713 92.8462 90.2441 92.8462 90.8735V96.9626C92.8462 97.5849 92.9982 98.1542 93.3023 98.6705C93.6064 99.1868 94.0166 99.6005 94.5329 99.9117C95.0491 100.216 95.622 100.368 96.2514 100.368ZM108.462 95.6684V94.2575H115.729C115.849 94.2575 115.994 94.2505 116.164 94.2363C116.334 94.2222 116.507 94.1974 116.684 94.1621C117.447 93.9923 118.017 93.6175 118.392 93.0376C118.773 92.4506 118.964 91.7858 118.964 91.0433C118.964 90.5624 118.883 90.0992 118.72 89.6536C118.558 89.2081 118.307 88.8262 117.967 88.5079C117.628 88.1897 117.2 87.974 116.684 87.8608C116.514 87.8184 116.341 87.7937 116.164 87.7866C115.987 87.7795 115.842 87.776 115.729 87.776H111.295V86.2802H115.771C115.892 86.2802 116.044 86.2873 116.227 86.3015C116.418 86.3085 116.627 86.3297 116.853 86.3651C117.645 86.4924 118.317 86.7717 118.869 87.2031C119.428 87.6275 119.848 88.1685 120.131 88.8262C120.421 89.4839 120.566 90.2123 120.566 91.0115C120.566 92.1996 120.248 93.2073 119.611 94.0348C118.982 94.8622 118.063 95.3785 116.853 95.5835C116.627 95.6118 116.418 95.633 116.227 95.6472C116.044 95.6613 115.892 95.6684 115.771 95.6684H108.462ZM108.462 98.9675V97.6309H116.662V98.9675H108.462ZM110.085 101.556V86.2802H111.645V101.556H110.085Z" fill="#030303"/>
<path fill-rule="evenodd" clip-rule="evenodd" d="M124.994 90.5317L49.8882 98.6105L49.7812 97.6162L124.887 89.5375L124.994 90.5317Z" fill="#FB201E"/>
<path d="M45.46 131.556V115.078L41.68 117.388V113.664L45.46 111.396H48.904V131.556H45.46ZM65.4148 131.556V128.224H56.4828V125.074L62.9368 111.396H66.7868L60.3328 125.074H65.4148V119.824H68.8308V125.074H70.7208V128.224H68.8308V131.556H65.4148ZM79.877 111.004C81.193 111.004 82.3784 111.317 83.433 111.942C84.4877 112.558 85.3184 113.417 85.925 114.518C86.541 115.61 86.849 116.87 86.849 118.298V124.444C86.849 125.965 86.541 127.295 85.925 128.434C85.3184 129.563 84.4644 130.436 83.363 131.052C82.2617 131.668 80.9737 131.976 79.499 131.976C78.4817 131.976 77.5204 131.803 76.615 131.458C75.7097 131.103 74.8977 130.562 74.179 129.834L76.601 127.468C76.965 127.888 77.399 128.219 77.903 128.462C78.4164 128.695 78.9484 128.812 79.499 128.812C80.283 128.812 80.969 128.63 81.557 128.266C82.145 127.893 82.6024 127.412 82.929 126.824C83.2557 126.227 83.419 125.587 83.419 124.906V121.56L84.021 122.232C83.4517 122.904 82.761 123.431 81.949 123.814C81.137 124.187 80.283 124.374 79.387 124.374C78.127 124.374 77.007 124.085 76.027 123.506C75.0564 122.927 74.291 122.143 73.731 121.154C73.1804 120.155 72.905 119.026 72.905 117.766C72.905 116.506 73.2224 115.367 73.857 114.35C74.4917 113.323 75.3364 112.511 76.391 111.914C77.455 111.307 78.617 111.004 79.877 111.004ZM79.877 114.224C79.2237 114.224 78.6264 114.383 78.085 114.7C77.5437 115.017 77.1144 115.447 76.797 115.988C76.4797 116.52 76.321 117.113 76.321 117.766C76.321 118.419 76.475 119.017 76.783 119.558C77.1004 120.099 77.525 120.529 78.057 120.846C78.5984 121.163 79.1957 121.322 79.849 121.322C80.5024 121.322 81.0997 121.163 81.641 120.846C82.1824 120.529 82.6117 120.099 82.929 119.558C83.2557 119.017 83.419 118.419 83.419 117.766C83.419 117.131 83.2604 116.548 82.943 116.016C82.6257 115.475 82.1964 115.041 81.655 114.714C81.123 114.387 80.5304 114.224 79.877 114.224ZM98.0097 131.976C96.5817 131.976 95.3217 131.673 94.2297 131.066C93.1377 130.45 92.2837 129.596 91.6677 128.504C91.061 127.412 90.7577 126.152 90.7577 124.724V118.228C90.7577 116.8 91.061 115.54 91.6677 114.448C92.2837 113.356 93.1377 112.507 94.2297 111.9C95.3217 111.284 96.5817 110.976 98.0097 110.976C99.4377 110.976 100.693 111.284 101.776 111.9C102.868 112.507 103.722 113.356 104.338 114.448C104.954 115.54 105.262 116.8 105.262 118.228V124.724C105.262 126.152 104.954 127.412 104.338 128.504C103.722 129.596 102.868 130.45 101.776 131.066C100.693 131.673 99.4377 131.976 98.0097 131.976ZM98.0097 128.77C98.719 128.77 99.363 128.602 99.9417 128.266C100.52 127.921 100.978 127.463 101.314 126.894C101.65 126.315 101.818 125.671 101.818 124.962V117.976C101.818 117.257 101.65 116.613 101.314 116.044C100.978 115.465 100.52 115.008 99.9417 114.672C99.363 114.327 98.719 114.154 98.0097 114.154C97.3003 114.154 96.6563 114.327 96.0777 114.672C95.499 115.008 95.0417 115.465 94.7057 116.044C94.3697 116.613 94.2017 117.257 94.2017 117.976V124.962C94.2017 125.671 94.3697 126.315 94.7057 126.894C95.0417 127.463 95.499 127.921 96.0777 128.266C96.6563 128.602 97.3003 128.77 98.0097 128.77ZM111.993 124.22V121.336H121.485C121.634 121.336 121.816 121.331 122.031 121.322C122.255 121.303 122.502 121.257 122.773 121.182C123.547 120.967 124.107 120.58 124.453 120.02C124.798 119.451 124.971 118.788 124.971 118.032C124.971 117.575 124.901 117.117 124.761 116.66C124.63 116.193 124.401 115.783 124.075 115.428C123.757 115.073 123.323 114.826 122.773 114.686C122.53 114.621 122.283 114.583 122.031 114.574C121.788 114.565 121.606 114.56 121.485 114.56H116.207V111.396H121.625C121.727 111.396 121.928 111.401 122.227 111.41C122.535 111.419 122.875 111.452 123.249 111.508C124.406 111.685 125.363 112.073 126.119 112.67C126.884 113.267 127.449 114.023 127.813 114.938C128.186 115.843 128.373 116.842 128.373 117.934C128.373 119.605 127.948 120.986 127.099 122.078C126.249 123.17 124.966 123.847 123.249 124.108C122.875 124.155 122.535 124.187 122.227 124.206C121.928 124.215 121.727 124.22 121.625 124.22H111.993ZM111.993 128.812V126.166H123.935V128.812H111.993ZM113.995 131.556V111.396H117.369V131.556H113.995Z" fill="#FB201E"/>
<path d="M70.484 78.0529V75.5559H60.518V63.6759H63.169V73.0699H68.185V63.6759H70.836V73.2019H73.135V78.0529H70.484ZM80.9526 75.8859C79.7499 75.8859 78.6939 75.6256 77.7846 75.1049C76.8752 74.5842 76.1639 73.8619 75.6506 72.9379C75.1446 72.0139 74.8916 70.9506 74.8916 69.7479C74.8916 68.4499 75.1409 67.3242 75.6396 66.3709C76.1382 65.4102 76.8312 64.6659 77.7186 64.1379C78.6059 63.6099 79.6326 63.3459 80.7986 63.3459C82.0306 63.3459 83.0756 63.6356 83.9336 64.2149C84.7989 64.7869 85.4406 65.5972 85.8586 66.6459C86.2766 67.6946 86.4342 68.9302 86.3316 70.3529H83.7026V69.3849C83.6952 68.0942 83.4679 67.1519 83.0206 66.5579C82.5732 65.9639 81.8692 65.6669 80.9086 65.6669C79.8232 65.6669 79.0166 66.0042 78.4886 66.6789C77.9606 67.3462 77.6966 68.3252 77.6966 69.6159C77.6966 70.8186 77.9606 71.7499 78.4886 72.4099C79.0166 73.0699 79.7866 73.3999 80.7986 73.3999C81.4512 73.3999 82.0122 73.2569 82.4816 72.9709C82.9582 72.6776 83.3249 72.2559 83.5816 71.7059L86.1996 72.4979C85.7449 73.5686 85.0409 74.4009 84.0876 74.9949C83.1416 75.5889 82.0966 75.8859 80.9526 75.8859ZM76.8606 70.3529V68.3509H85.0336V70.3529H76.8606ZM89.4239 75.5559V63.6759H92.0749V68.3619H97.4099V63.6759H100.061V75.5559H97.4099V70.8479H92.0749V75.5559H89.4239ZM107.113 75.8859C106.255 75.8859 105.529 75.7246 104.935 75.4019C104.341 75.0719 103.89 74.6356 103.582 74.0929C103.282 73.5502 103.131 72.9526 103.131 72.2999C103.131 71.7279 103.227 71.2146 103.417 70.7599C103.608 70.2979 103.901 69.9019 104.297 69.5719C104.693 69.2346 105.207 68.9596 105.837 68.7469C106.314 68.5929 106.871 68.4536 107.509 68.3289C108.155 68.2042 108.851 68.0906 109.599 67.9879C110.355 67.8779 111.143 67.7606 111.964 67.6359L111.018 68.1749C111.026 67.3536 110.842 66.7486 110.468 66.3599C110.094 65.9712 109.464 65.7769 108.576 65.7769C108.041 65.7769 107.524 65.9016 107.025 66.1509C106.527 66.4002 106.178 66.8292 105.98 67.4379L103.56 66.6789C103.854 65.6742 104.411 64.8676 105.232 64.2589C106.061 63.6502 107.176 63.3459 108.576 63.3459C109.632 63.3459 110.56 63.5182 111.359 63.8629C112.166 64.2076 112.764 64.7722 113.152 65.5569C113.365 65.9749 113.493 66.4039 113.537 66.8439C113.581 67.2766 113.603 67.7496 113.603 68.2629V75.5559H111.282V72.9819L111.667 73.3999C111.132 74.2579 110.505 74.8886 109.786 75.2919C109.075 75.6879 108.184 75.8859 107.113 75.8859ZM107.641 73.7739C108.243 73.7739 108.756 73.6676 109.181 73.4549C109.607 73.2422 109.944 72.9819 110.193 72.6739C110.45 72.3659 110.622 72.0762 110.71 71.8049C110.85 71.4676 110.927 71.0826 110.941 70.6499C110.963 70.2099 110.974 69.8542 110.974 69.5829L111.788 69.8249C110.989 69.9496 110.303 70.0596 109.731 70.1549C109.159 70.2502 108.668 70.3419 108.257 70.4299C107.847 70.5106 107.484 70.6022 107.168 70.7049C106.86 70.8149 106.6 70.9432 106.387 71.0899C106.175 71.2366 106.01 71.4052 105.892 71.5959C105.782 71.7866 105.727 72.0102 105.727 72.2669C105.727 72.5602 105.801 72.8206 105.947 73.0479C106.094 73.2679 106.307 73.4439 106.585 73.5759C106.871 73.7079 107.223 73.7739 107.641 73.7739Z" fill="#030303"/>
<path d="M52.96 56.5559V36.3959H56.334V53.3919H62.564V36.3959H65.938V53.3919H72.182V36.3959H75.542V56.5559H52.96ZM106.078 56.5559V36.3959H109.452V45.7479L117.502 36.3959H121.646L112.98 46.2799L122.234 56.5559H117.95L109.452 47.1479V56.5559H106.078Z" fill="#030303"/>
<g filter="url(#filter1_d_603_1187)">
<path d="M90.4974 33.9727C83.8274 33.9727 78.4141 39.386 78.4141 46.056C78.4141 52.726 83.8274 58.1393 90.4974 58.1393C97.1674 58.1393 102.581 52.726 102.581 46.056C102.581 39.386 97.1674 33.9727 90.4974 33.9727ZM86.5461 40.8118C87.5249 40.8118 88.3345 41.6093 88.3345 42.6002C88.3345 43.5789 87.537 44.3885 86.5461 44.3885C85.5674 44.3885 84.7578 43.591 84.7578 42.6002C84.7578 41.6093 85.5553 40.8118 86.5461 40.8118ZM86.6911 50.6477C86.5099 50.8289 86.2803 50.9135 86.0507 50.9135C85.8211 50.9135 85.5916 50.8289 85.4103 50.6477C85.0599 50.2972 85.0599 49.7172 85.4103 49.3668L93.3249 41.4522C93.6753 41.1018 94.2553 41.1018 94.6057 41.4522C94.9561 41.8027 94.9561 42.3827 94.6057 42.7331L86.6911 50.6477ZM94.4486 51.3002C93.4699 51.3002 92.6603 50.5027 92.6603 49.5118C92.6603 48.5331 93.4578 47.7235 94.4486 47.7235C95.4274 47.7235 96.237 48.521 96.237 49.5118C96.237 50.5027 95.4395 51.3002 94.4486 51.3002Z" fill="#FB1F1D"/>
<path d="M90.4974 33.9727C83.8274 33.9727 78.4141 39.386 78.4141 46.056C78.4141 52.726 83.8274 58.1393 90.4974 58.1393C97.1674 58.1393 102.581 52.726 102.581 46.056C102.581 39.386 97.1674 33.9727 90.4974 33.9727ZM86.5461 40.8118C87.5249 40.8118 88.3345 41.6093 88.3345 42.6002C88.3345 43.5789 87.537 44.3885 86.5461 44.3885C85.5674 44.3885 84.7578 43.591 84.7578 42.6002C84.7578 41.6093 85.5553 40.8118 86.5461 40.8118ZM86.6911 50.6477C86.5099 50.8289 86.2803 50.9135 86.0507 50.9135C85.8211 50.9135 85.5916 50.8289 85.4103 50.6477C85.0599 50.2972 85.0599 49.7172 85.4103 49.3668L93.3249 41.4522C93.6753 41.1018 94.2553 41.1018 94.6057 41.4522C94.9561 41.8027 94.9561 42.3827 94.6057 42.7331L86.6911 50.6477ZM94.4486 51.3002C93.4699 51.3002 92.6603 50.5027 92.6603 49.5118C92.6603 48.5331 93.4578 47.7235 94.4486 47.7235C95.4274 47.7235 96.237 48.521 96.237 49.5118C96.237 50.5027 95.4395 51.3002 94.4486 51.3002Z" fill="url(#paint0_radial_603_1187)" fill-opacity="0.7"/>
</g>
<defs>
<filter id="filter0_b_603_1187" x="-10" y="-8.44409" width="193" height="193" filterUnits="userSpaceOnUse" color-interpolation-filters="sRGB">
<feFlood flood-opacity="0" result="BackgroundImageFix"/>
<feGaussianBlur in="BackgroundImage" stdDeviation="9"/>
<feComposite in2="SourceAlpha" operator="in" result="effect1_backgroundBlur_603_1187"/>
<feBlend mode="normal" in="SourceGraphic" in2="effect1_backgroundBlur_603_1187" result="shape"/>
</filter>
<filter id="filter1_d_603_1187" x="67.9914" y="23.55" width="45.0093" height="45.012" filterUnits="userSpaceOnUse" color-interpolation-filters="sRGB">
<feFlood flood-opacity="0" result="BackgroundImageFix"/>
<feColorMatrix in="SourceAlpha" type="matrix" values="0 0 0 0 0 0 0 0 0 0 0 0 0 0 0 0 0 0 127 0" result="hardAlpha"/>
<feOffset/>
<feGaussianBlur stdDeviation="5.21131"/>
<feComposite in2="hardAlpha" operator="out"/>
<feColorMatrix type="matrix" values="0 0 0 0 0 0 0 0 0 0 0 0 0 0 0 0 0 0 0.12 0"/>
<feBlend mode="normal" in2="BackgroundImageFix" result="effect1_dropShadow_603_1187"/>
<feBlend mode="normal" in="SourceGraphic" in2="effect1_dropShadow_603_1187" result="shape"/>
</filter>
<radialGradient id="paint0_radial_603_1187" cx="0" cy="0" r="1" gradientUnits="userSpaceOnUse" gradientTransform="translate(84.7914 39.0074) rotate(51.0441) scale(20.2866 20.2866)">
<stop stop-color="white" stop-opacity="0.59"/>
<stop offset="0.697917" stop-color="white" stop-opacity="0"/>
<stop offset="1" stop-color="white" stop-opacity="0"/>
</radialGradient>
</defs>
</svg>
