<svg width="52" height="53" viewBox="0 0 52 53" fill="none" xmlns="http://www.w3.org/2000/svg">
<circle cx="26" cy="26.2305" r="26" fill="#F8F8F8"/>
<mask id="mask0_521_780" style="mask-type:alpha" maskUnits="userSpaceOnUse" x="0" y="0" width="52" height="53">
<circle cx="26" cy="26.2305" r="26" fill="#F8F8F8"/>
</mask>
<g mask="url(#mask0_521_780)">
<path fill-rule="evenodd" clip-rule="evenodd" d="M24.9386 13.2531C22.5066 13.555 20.4698 14.5567 18.7788 16.2825C18.3212 16.7495 17.7773 17.3889 17.5701 17.7033C15.4947 20.8523 15.2312 24.7848 16.8749 28.0788C17.3901 29.1113 17.8939 29.8065 18.7788 30.7058C20.3008 32.2526 21.9641 33.1589 24.1073 33.609C24.9881 33.794 26.9825 33.7939 27.9041 33.6086C29.9684 33.1939 31.651 32.278 33.1776 30.7384C34.4085 29.4969 35.1603 28.2892 35.6634 26.745C36.0585 25.5323 36.1576 24.8809 36.1576 23.4959C36.1576 22.5876 36.1205 22.0583 36.0239 21.5904C35.7335 20.1842 35.1953 18.8764 34.4242 17.7033C33.9484 16.9795 32.472 15.4853 31.7716 15.0186C30.5534 14.207 29.2401 13.6496 27.9449 13.3949C27.3359 13.2751 25.4703 13.1871 24.9386 13.2531Z" fill="#E8E8E8"/>
<path d="M8.86786 42.9439C11.759 39.254 16.2495 36.855 21.2228 36.3433C22.4588 36.2162 29.0207 36.1876 30.3697 36.3035C34.4287 36.6521 38.1495 38.1963 41.0282 40.727C44.0698 43.401 45.7366 46.6559 45.9722 50.3819C46.0249 51.2162 46.0142 51.3146 45.838 51.6077C45.7106 51.82 45.5294 51.9772 45.2957 52.0785C44.9473 52.2294 44.8116 52.2305 26.0004 52.2305C7.18919 52.2305 7.05351 52.2294 6.70508 52.0785C6.47125 51.9772 6.29024 51.82 6.16248 51.6074C5.98644 51.3143 5.97542 51.2145 6.0268 50.3815C6.19395 47.6727 7.17496 45.1045 8.86786 42.9439Z" fill="#E8E8E8"/>
</g>
</svg>
