<svg width="142" height="16" viewBox="0 0 142 16" fill="none" xmlns="http://www.w3.org/2000/svg">
<path d="M4.33417 15.7082L0 0.276908H2.84308L6.17318 12.129L9.74215 0.275879L12.3924 0.276908L15.9738 12.1919L19.3189 0.279822L22.1619 0.275879L17.8259 15.7055L14.5305 15.7022L11.0684 4.17834L7.60299 15.7052L4.33417 15.7082Z" fill="#CB11AB"/>
<path d="M24.1191 0.284668H26.8255V15.698H24.1191V0.284668Z" fill="#CB11AB"/>
<path d="M32.6152 13.2802H39.2038V15.698H29.9648V0.284668H32.6152V13.2802Z" fill="#CB11AB"/>
<path d="M47.5287 0.302439C49.7498 0.302439 51.5976 1.04913 53.0534 2.52467C54.5279 4.00021 55.2745 5.83135 55.2745 8.00021C55.2745 10.1514 54.5279 11.9824 53.0534 13.4758C51.5976 14.9514 49.7498 15.698 47.5287 15.698H41.1641V0.284668H47.5287V0.302439ZM47.5287 13.298C49.0592 13.298 50.3097 12.8002 51.2429 11.8047C52.2135 10.8091 52.6988 9.52912 52.6988 8.01798C52.6988 6.47135 52.2135 5.2269 51.2429 4.23135C50.2911 3.23575 49.0405 2.73798 47.5287 2.73798H43.8331V13.298H47.5287Z" fill="#CB11AB"/>
<path d="M69.5556 11.2948C69.5556 12.5577 69.0894 13.6071 68.1374 14.4431C67.1854 15.2791 66.0654 15.706 64.6845 15.706H57.7598V0.284668H64.1804C65.5057 0.284668 66.6251 0.711582 67.5398 1.51198C68.4735 2.33015 68.9214 3.34404 68.9214 4.55352C68.9214 5.90535 68.3611 6.93701 67.2789 7.70187C68.6971 8.41335 69.5556 9.69398 69.5556 11.2948ZM60.4286 2.66815V6.72358H64.1987C65.3749 6.72358 66.2707 5.83421 66.2707 4.69587C66.2707 3.55747 65.3749 2.66815 64.1987 2.66815H60.4286ZM64.7028 13.3225C65.9347 13.3225 66.9056 12.3798 66.9056 11.1703C66.9056 9.96078 65.9347 9.0181 64.7028 9.0181H60.4286V13.3403H64.7028V13.3225Z" fill="#CB11AB"/>
<path d="M74.7243 13.287H81.8917V15.706H72.0742V0.284668H81.7799V2.7037H74.7243V6.70575H81.2012V9.10701H74.7243V13.287Z" fill="#CB11AB"/>
<path d="M93.4978 15.706L90.0632 10.0853H86.9274V15.706H84.2773V0.284668H90.7537C92.2098 0.284668 93.4416 0.764897 94.4309 1.74318C95.4385 2.68592 95.9615 3.85987 95.9615 5.24724C95.9615 7.20381 94.6735 9.00027 92.7512 9.71175L96.4277 15.706H93.4978ZM86.9274 2.6681V7.82632H90.7353C92.1536 7.82632 93.2736 6.68798 93.2736 5.24724C93.2736 3.82427 92.1352 2.6681 90.7353 2.6681H86.9274Z" fill="#CB11AB"/>
<path d="M107.666 15.7057L104.251 10.0821H101.115V15.7057H98.4648V0.276367H104.941C106.397 0.276367 107.629 0.756881 108.618 1.73568C109.626 2.67888 110.149 3.85339 110.149 5.24151C110.149 7.19911 108.861 8.99654 106.939 9.70837L110.615 15.7057H107.666ZM101.115 2.66105V7.82197H104.923C106.341 7.82197 107.461 6.68299 107.461 5.24151C107.461 3.81785 106.323 2.66105 104.923 2.66105H101.115Z" fill="#CB11AB"/>
<path d="M112.551 0.277832H115.201V15.7054H112.551V0.277832Z" fill="#CB11AB"/>
<path d="M120.996 13.287H128.164V15.7059H118.346V0.284668H128.051V2.7037H120.996V6.70575H127.473V9.10701H120.996V13.287Z" fill="#CB11AB"/>
<path d="M130.008 12.1955L132.303 10.9155C132.957 12.6578 134.282 13.5111 136.316 13.5111C138.332 13.5111 139.321 12.6933 139.321 11.4845C139.321 10.8445 139.041 10.3822 138.519 10.0622C137.996 9.72446 137.026 9.35109 135.645 8.96C134.095 8.51554 133.33 8.23109 132.247 7.55554C131.202 6.84446 130.679 5.83109 130.679 4.44446C130.679 3.07554 131.183 2.00891 132.21 1.20891C133.218 0.391086 134.45 0 135.887 0C138.482 0 140.478 1.28 141.524 3.39554L139.284 4.62223C138.612 3.2 137.473 2.47109 135.887 2.47109C134.338 2.47109 133.348 3.21777 133.348 4.39109C133.348 5.52891 134.132 6.06223 136.615 6.79109C137.231 6.98669 137.679 7.12892 137.959 7.23554C138.257 7.32446 138.649 7.48446 139.153 7.68C139.676 7.87554 140.087 8.10669 140.329 8.30223C141.188 8.94223 142.102 9.99109 141.99 11.4667C141.99 12.8533 141.468 13.9733 140.404 14.7911C139.358 15.6089 137.978 16 136.261 16C133.125 15.9822 130.847 14.56 130.008 12.1955Z" fill="#CB11AB"/>
</svg>
