<svg width="112" height="112" viewBox="0 0 112 112" fill="none" xmlns="http://www.w3.org/2000/svg">
<path fill-rule="evenodd" clip-rule="evenodd" d="M5.33594 56C5.33594 28.1242 28.1268 5.33334 56.0026 5.33334C83.8784 5.33334 106.669 28.1242 106.669 56C106.669 83.8758 83.8784 106.667 56.0026 106.667C28.1268 106.667 5.33594 83.8758 5.33594 56ZM56.0026 13.3333C32.5451 13.3333 13.3359 32.5425 13.3359 56C13.3359 79.4575 32.5451 98.6667 56.0026 98.6667C79.4601 98.6667 98.6693 79.4575 98.6693 56C98.6693 32.5425 79.4601 13.3333 56.0026 13.3333Z" fill="#FB1F1D"/>
<g opacity="0.4">
<path fill-rule="evenodd" clip-rule="evenodd" d="M72.0386 39.9645C73.6007 41.5266 73.6007 44.0593 72.0386 45.6214L45.6253 72.0347C44.0632 73.5968 41.5305 73.5968 39.9684 72.0347C38.4064 70.4726 38.4064 67.94 39.9684 66.3779L66.3818 39.9645C67.9439 38.4024 70.4765 38.4024 72.0386 39.9645Z" fill="#FB1F1D"/>
<path fill-rule="evenodd" clip-rule="evenodd" d="M39.9684 39.9645C41.5305 38.4024 44.0632 38.4024 45.6253 39.9645L72.0386 66.3779C73.6007 67.94 73.6007 70.4726 72.0386 72.0347C70.4765 73.5968 67.9439 73.5968 66.3818 72.0347L39.9684 45.6214C38.4064 44.0593 38.4064 41.5266 39.9684 39.9645Z" fill="#FB1F1D"/>
</g>
</svg>
