<svg width="114" height="114" viewBox="0 0 114 114" fill="none" xmlns="http://www.w3.org/2000/svg">
<path fill-rule="evenodd" clip-rule="evenodd" d="M5.5 57C5.5 28.6659 28.6659 5.5 57 5.5C85.3341 5.5 108.5 28.6659 108.5 57C108.5 85.3341 85.3341 108.5 57 108.5C28.6659 108.5 5.5 85.3341 5.5 57ZM57 13.5C33.0841 13.5 13.5 33.0841 13.5 57C13.5 80.9159 33.0841 100.5 57 100.5C80.9159 100.5 100.5 80.9159 100.5 57C100.5 33.0841 80.9159 13.5 57 13.5Z" fill="#33FF00"/>
<path opacity="0.34" fill-rule="evenodd" clip-rule="evenodd" d="M80.0184 40.7316C81.5791 42.295 81.5769 44.8277 80.0134 46.3884L53.0809 73.2734C51.5184 74.8332 48.9877 74.832 47.4266 73.2709L33.9841 59.8284C32.422 58.2663 32.422 55.7337 33.9841 54.1716C35.5462 52.6095 38.0788 52.6095 39.6409 54.1716L50.2575 64.7881L74.3616 40.7266C75.925 39.1659 78.4577 39.1681 80.0184 40.7316Z" fill="#33FF00"/>
</svg>
