<svg width="34" height="34" viewBox="0 0 34 34" fill="none" xmlns="http://www.w3.org/2000/svg">
<rect x="0.945312" y="0.0244141" width="33" height="33" rx="8" fill="#292D32"/>
<rect x="0.945312" y="0.0244141" width="33" height="33" rx="8" fill="#FB1F1D"/>
<rect x="0.945312" y="0.0244141" width="33" height="33" rx="8" fill="url(#paint0_radial_603_4489)" fill-opacity="0.7"/>
<rect x="0.945312" y="0.0244141" width="33" height="33" rx="8" fill="url(#paint1_radial_603_4489)"/>
<path fill-rule="evenodd" clip-rule="evenodd" d="M12.3712 7.04197C12.0441 7.08011 11.6018 7.24692 11.2962 7.44732C10.3222 8.08619 9.94122 9.40516 10.4291 10.4491C10.4908 10.5811 10.5412 10.6956 10.5412 10.7035C10.5412 10.7114 10.1828 10.7179 9.7446 10.7179C9.03185 10.7179 8.92647 10.7259 8.74418 10.7943C8.47481 10.8952 8.19561 11.1512 8.06543 11.4165L7.9615 11.6285L7.95036 12.7807C7.93923 13.9292 7.93949 13.9334 8.02653 14.0982C8.08681 14.2122 8.16398 14.29 8.27552 14.3491L8.43717 14.4347H17.4453H26.4535L26.6151 14.3491C26.7266 14.29 26.8038 14.2122 26.8641 14.0982C26.9511 13.9334 26.9514 13.9292 26.9403 12.7807L26.9291 11.6285L26.8252 11.4165C26.695 11.1512 26.4158 10.8952 26.1464 10.7943C25.9642 10.7259 25.8588 10.7179 25.146 10.7179C24.7079 10.7179 24.3494 10.709 24.3494 10.6981C24.3494 10.6872 24.3893 10.5994 24.438 10.503C24.8079 9.77151 24.7368 8.83947 24.2557 8.11492C23.5379 7.03365 22.0609 6.70383 20.9515 7.37711C20.838 7.44598 20.4328 7.78417 20.051 8.12868C19.6693 8.47318 19.2352 8.86481 19.0864 8.99899L18.8158 9.24296L18.6966 9.12945C18.3679 8.81635 17.9455 8.65686 17.4453 8.65694C16.9626 8.65705 16.637 8.77123 16.2731 9.06801L16.0646 9.23805L15.9662 9.14744C15.063 8.31578 14.1515 7.51597 13.9801 7.40477C13.5134 7.10196 12.9489 6.97466 12.3712 7.04197ZM13.1952 8.38528C13.3064 8.44244 13.8201 8.87924 14.4758 9.47418C15.4622 10.3691 15.572 10.4802 15.5824 10.5946L15.5941 10.7216L14.0049 10.7094C12.1973 10.6955 12.2141 10.698 11.8722 10.3901C11.5966 10.142 11.4688 9.85574 11.4709 9.49138C11.4741 8.93187 11.7158 8.57342 12.2387 8.35254C12.5274 8.23059 12.9205 8.24404 13.1952 8.38528ZM22.7666 8.40818C23.2214 8.63233 23.4451 9.0311 23.4135 9.561C23.3885 9.97995 23.2228 10.2648 22.8735 10.4893C22.5396 10.7037 22.4098 10.7179 20.776 10.7179H19.2968L19.3083 10.5906C19.3187 10.4757 19.4242 10.3688 20.3879 9.49662C20.9753 8.96498 21.5152 8.49329 21.5877 8.44843C21.9462 8.22658 22.3689 8.21212 22.7666 8.40818ZM9.18448 15.7086C9.17442 15.7348 9.17071 17.8465 9.17628 20.4011L9.18641 25.046L9.28422 25.2548C9.48229 25.6778 9.80841 25.9232 10.2653 25.9932C10.4343 26.019 11.4982 26.0291 13.3623 26.0224L16.2018 26.0123V20.846V15.6798L12.7023 15.6703C9.87864 15.6626 9.19926 15.67 9.18448 15.7086ZM18.6875 15.7075C18.6777 15.7331 18.674 18.0622 18.6792 20.8832L18.6888 26.0123L21.5284 26.0224C23.3924 26.0291 24.4564 26.019 24.6253 25.9932C25.0822 25.9232 25.4083 25.6778 25.6064 25.2548L25.7042 25.046V20.3629V15.6798L22.2047 15.6703C19.4247 15.6627 18.7015 15.6704 18.6875 15.7075Z" fill="#FFFBFB"/>
<defs>
<radialGradient id="paint0_radial_603_4489" cx="0" cy="0" r="1" gradientUnits="userSpaceOnUse" gradientTransform="translate(9.65364 6.89942) rotate(51.0441) scale(27.7017 27.7017)">
<stop stop-color="white" stop-opacity="0.59"/>
<stop offset="0.697917" stop-color="white" stop-opacity="0"/>
<stop offset="1" stop-color="white" stop-opacity="0"/>
</radialGradient>
<radialGradient id="paint1_radial_603_4489" cx="0" cy="0" r="1" gradientUnits="userSpaceOnUse" gradientTransform="translate(29.4248 28.8994) rotate(-93.6705) scale(28.2454 31.4807)">
<stop stop-opacity="0.23"/>
<stop offset="0.861815" stop-opacity="0"/>
</radialGradient>
</defs>
</svg>
