<svg width="87" height="20" viewBox="0 0 87 20" fill="none" xmlns="http://www.w3.org/2000/svg">
<path d="M11.1885 18V4.01348L8.28219 5.75511V4.34471L11.1885 2.61375H12.4279V18H11.1885ZM25.8635 2.29321C26.818 2.29321 27.6835 2.52828 28.4599 2.99841C29.2435 3.46142 29.8668 4.08827 30.3298 4.87895C30.7999 5.66963 31.035 6.54936 31.035 7.51812V13.0636C31.035 14.0537 30.8035 14.9441 30.3405 15.7348C29.8775 16.5255 29.2506 17.1559 28.4599 17.626C27.6693 18.089 26.786 18.3205 25.8101 18.3205C24.8983 18.3205 24.0578 18.1068 23.2885 17.6795C22.5263 17.2521 21.9137 16.6715 21.4506 15.9378L22.4443 15.2219C22.7863 15.7847 23.2564 16.2441 23.8548 16.6003C24.4531 16.9493 25.1049 17.1238 25.8101 17.1238C26.5723 17.1238 27.2525 16.9386 27.8509 16.5682C28.4493 16.1978 28.9194 15.7099 29.2613 15.1044C29.6103 14.4989 29.7849 13.8436 29.7849 13.1384V9.51619L30.1588 9.94359C29.7101 10.7129 29.101 11.3398 28.3317 11.8241C27.5695 12.3014 26.7219 12.54 25.7887 12.54C24.8413 12.54 23.983 12.3121 23.2137 11.8562C22.4443 11.4003 21.8317 10.7877 21.3759 10.0184C20.92 9.24195 20.692 8.38003 20.692 7.43264C20.692 6.48525 20.9271 5.62333 21.3972 4.8469C21.8674 4.07046 22.4906 3.45074 23.2671 2.98772C24.0506 2.52471 24.9161 2.29321 25.8635 2.29321ZM25.8635 3.51128C25.1369 3.51128 24.4745 3.6858 23.8761 4.03484C23.2849 4.38388 22.8112 4.85758 22.455 5.45594C22.106 6.04717 21.9315 6.70607 21.9315 7.43264C21.9315 8.15921 22.106 8.82168 22.455 9.42003C22.8112 10.0113 23.2849 10.485 23.8761 10.8411C24.4745 11.1902 25.1369 11.3647 25.8635 11.3647C26.5901 11.3647 27.249 11.1902 27.8402 10.8411C28.4386 10.485 28.9123 10.0113 29.2613 9.42003C29.6103 8.82168 29.7849 8.15921 29.7849 7.43264C29.7849 6.70607 29.6103 6.04717 29.2613 5.45594C28.9123 4.85758 28.4386 4.38388 27.8402 4.03484C27.249 3.6858 26.5901 3.51128 25.8635 3.51128ZM39.1153 2.29321C40.0698 2.29321 40.9353 2.52828 41.7117 2.99841C42.4953 3.46142 43.1186 4.08827 43.5816 4.87895C44.0517 5.66963 44.2868 6.54936 44.2868 7.51812V13.0636C44.2868 14.0537 44.0553 14.9441 43.5923 15.7348C43.1292 16.5255 42.5024 17.1559 41.7117 17.626C40.921 18.089 40.0377 18.3205 39.0619 18.3205C38.1501 18.3205 37.3095 18.1068 36.5402 17.6795C35.778 17.2521 35.1654 16.6715 34.7024 15.9378L35.6961 15.2219C36.038 15.7847 36.5082 16.2441 37.1065 16.6003C37.7049 16.9493 38.3567 17.1238 39.0619 17.1238C39.824 17.1238 40.5043 16.9386 41.1027 16.5682C41.701 16.1978 42.1712 15.7099 42.5131 15.1044C42.8621 14.4989 43.0366 13.8436 43.0366 13.1384V9.51619L43.4106 9.94359C42.9618 10.7129 42.3528 11.3398 41.5835 11.8241C40.8213 12.3014 39.9736 12.54 39.0405 12.54C38.0931 12.54 37.2347 12.3121 36.4654 11.8562C35.6961 11.4003 35.0835 10.7877 34.6276 10.0184C34.1717 9.24195 33.9438 8.38003 33.9438 7.43264C33.9438 6.48525 34.1789 5.62333 34.649 4.8469C35.1191 4.07046 35.7424 3.45074 36.5189 2.98772C37.3024 2.52471 38.1679 2.29321 39.1153 2.29321ZM39.1153 3.51128C38.3887 3.51128 37.7262 3.6858 37.1279 4.03484C36.5367 4.38388 36.063 4.85758 35.7068 5.45594C35.3578 6.04717 35.1832 6.70607 35.1832 7.43264C35.1832 8.15921 35.3578 8.82168 35.7068 9.42003C36.063 10.0113 36.5367 10.485 37.1279 10.8411C37.7262 11.1902 38.3887 11.3647 39.1153 11.3647C39.8419 11.3647 40.5008 11.1902 41.092 10.8411C41.6903 10.485 42.164 10.0113 42.5131 9.42003C42.8621 8.82168 43.0366 8.15921 43.0366 7.43264C43.0366 6.70607 42.8621 6.04717 42.5131 5.45594C42.164 4.85758 41.6903 4.38388 41.092 4.03484C40.5008 3.6858 39.8419 3.51128 39.1153 3.51128ZM52.1213 18.3205C51.2166 18.3205 50.3975 18.1033 49.6638 17.6688C48.9372 17.2342 48.3567 16.6537 47.9221 15.9271C47.4876 15.1934 47.2704 14.3743 47.2704 13.4696V7.14415C47.2704 6.23949 47.4876 5.42388 47.9221 4.69731C48.3567 3.96361 48.9372 3.3795 49.6638 2.94499C50.3975 2.51047 51.2166 2.29321 52.1213 2.29321C53.026 2.29321 53.8451 2.51047 54.5788 2.94499C55.3125 3.3795 55.8931 3.96361 56.3205 4.69731C56.755 5.42388 56.9722 6.23949 56.9722 7.14415V13.4696C56.9722 14.3743 56.755 15.1934 56.3205 15.9271C55.8931 16.6537 55.3125 17.2342 54.5788 17.6688C53.8451 18.1033 53.026 18.3205 52.1213 18.3205ZM52.1213 17.1132C52.7838 17.1132 53.3857 16.9529 53.927 16.6323C54.4755 16.3047 54.9136 15.8666 55.2413 15.3181C55.569 14.7696 55.7328 14.1641 55.7328 13.5017V7.10141C55.7328 6.44607 55.569 5.84415 55.2413 5.29566C54.9136 4.74717 54.4755 4.31265 53.927 3.9921C53.3857 3.66443 52.7838 3.5006 52.1213 3.5006C51.4588 3.5006 50.8534 3.66443 50.3049 3.9921C49.7635 4.31265 49.329 4.74717 49.0013 5.29566C48.6736 5.84415 48.5098 6.44607 48.5098 7.10141V13.5017C48.5098 14.1641 48.6736 14.7696 49.0013 15.3181C49.329 15.8666 49.7635 16.3047 50.3049 16.6323C50.8534 16.9529 51.4588 17.1132 52.1213 17.1132ZM64.2368 11.9524V10.7984H71.588C71.7091 10.7984 71.8551 10.7913 72.0261 10.777C72.197 10.7628 72.3644 10.7378 72.5283 10.7022C73.3617 10.5313 73.9885 10.1252 74.4088 9.48414C74.8291 8.84305 75.0392 8.12004 75.0392 7.31511C75.0392 6.78799 74.9466 6.2858 74.7614 5.80854C74.5762 5.33128 74.2984 4.92525 73.928 4.59046C73.5576 4.24854 73.091 4.0206 72.5283 3.90663C72.3644 3.86389 72.1935 3.83895 72.0154 3.83183C71.8444 3.81758 71.702 3.81046 71.588 3.81046H66.9614V2.61375H71.6094C71.7376 2.61375 71.8872 2.62088 72.0581 2.63512C72.2362 2.64225 72.4285 2.66362 72.6351 2.69923C73.4116 2.82745 74.074 3.10526 74.6225 3.53265C75.1781 3.95293 75.602 4.48717 75.894 5.13539C76.1861 5.78361 76.3321 6.50662 76.3321 7.30442C76.3321 8.47264 76.0116 9.47702 75.3705 10.3176C74.7365 11.151 73.8247 11.6674 72.6351 11.8669C72.4285 11.9025 72.2362 11.9274 72.0581 11.9417C71.8872 11.9488 71.7376 11.9524 71.6094 11.9524H64.2368ZM64.2368 15.2219V14.1H72.2184V15.2219H64.2368ZM65.9143 18V2.61375H67.1431V18H65.9143Z" fill="#676767"/>
<line x1="3.93963" y1="14.5037" x2="77.9396" y2="5.50366" stroke="#676767"/>
</svg>
