<svg width="44" height="30" viewBox="0 0 44 30" fill="none" xmlns="http://www.w3.org/2000/svg">
<path fill-rule="evenodd" clip-rule="evenodd" d="M13.9346 0.0557645C10.3426 0.325986 7.16746 1.75182 4.54071 4.27424C2.27608 6.4489 0.660836 9.54174 0.18974 12.6055C-0.176695 14.9884 -0.0138623 17.2293 0.691199 19.507C2.11404 24.1035 5.89686 27.8836 10.4966 29.3054C12.3101 29.8659 14.1639 30.0926 15.897 29.9657C18.2033 29.7968 19.8643 29.3421 21.8441 28.3376C26.0361 26.2107 29.1036 22.002 29.8092 17.4092C30.1767 15.0165 30.0152 12.793 29.3078 10.5077C28.1456 6.7533 25.3652 3.46357 21.8441 1.67709C19.8752 0.678113 18.192 0.21611 15.9122 0.0488326C15.0072 -0.0175675 14.9046 -0.0172026 13.9346 0.0557645ZM16.2253 1.56916C22.7231 2.19565 27.8203 7.28924 28.4473 13.7825C28.9789 19.2891 25.9549 24.6514 20.9323 27.1086C17.1141 28.9765 12.8864 28.9766 9.06669 27.1088C6.32847 25.7698 4.13826 23.5614 2.82421 20.8143C1.04802 17.1012 1.04802 12.9135 2.82421 9.20037C4.66241 5.3575 8.23786 2.59186 12.4633 1.74447C13.5009 1.53639 15.1082 1.46148 16.2253 1.56916ZM12.0179 14.2777H10.4966V15.737H12.0179V17.2572H10.4966V18.7773H12.0179V21.7568H13.4783V18.7773H17.9811V17.2572H13.4783V15.7458L15.4711 15.7213C17.3076 15.6986 17.4951 15.6865 17.8609 15.5661C18.9424 15.2102 19.6693 14.4982 20.0457 13.426C20.2351 12.8867 20.2869 11.6534 20.1478 10.9941C19.9328 9.97431 19.3145 9.14102 18.4598 8.71915C17.6058 8.29758 17.6267 8.30008 14.68 8.27369L12.0179 8.24985V14.2777ZM17.5552 9.94597C18.2302 10.2184 18.6085 10.7611 18.7236 11.622C18.7786 12.0332 18.773 12.2025 18.6914 12.602C18.5272 13.4056 18.1653 13.8486 17.4619 14.107C17.1254 14.2305 16.9663 14.2422 15.2885 14.265L13.4783 14.2897V9.77012L15.3494 9.79049C17.1158 9.80977 17.2392 9.81846 17.5552 9.94597Z" fill="black"/>
<path fill-rule="evenodd" clip-rule="evenodd" d="M22.4757 1.75C21.3419 1.75 20.2437 1.90303 19.1985 2.18991L18.8015 0.74342C19.9745 0.42142 21.2063 0.25 22.4757 0.25C30.3834 0.25 36.75 6.87845 36.75 15C36.75 23.1215 30.3834 29.75 22.4757 29.75C21.2063 29.75 19.9745 29.5786 18.8015 29.2566L19.1985 27.8101C20.2437 28.097 21.3419 28.25 22.4757 28.25C29.5065 28.25 35.25 22.3424 35.25 15C35.25 7.65758 29.5065 1.75 22.4757 1.75Z" fill="black"/>
<path fill-rule="evenodd" clip-rule="evenodd" d="M29.4757 1.75C28.3419 1.75 27.2437 1.90303 26.1985 2.18991L25.8015 0.74342C26.9745 0.42142 28.2063 0.25 29.4757 0.25C37.3834 0.25 43.75 6.87845 43.75 15C43.75 23.1215 37.3834 29.75 29.4757 29.75C28.2063 29.75 26.9745 29.5786 25.8015 29.2566L26.1985 27.8101C27.2437 28.097 28.3419 28.25 29.4757 28.25C36.5065 28.25 42.25 22.3424 42.25 15C42.25 7.65758 36.5065 1.75 29.4757 1.75Z" fill="black"/>
</svg>
